<svg width="120" height="120" viewBox="0 0 120 120" xmlns="http://www.w3.org/2000/svg" role="img" aria-label="Mooves app icon">
  <rect x="0" y="0" width="120" height="120" fill="#F5F0ED"></rect>
  <ellipse cx="11" cy="33" rx="8" ry="17" fill="#ECE8F2" transform="rotate(-28 11 33)"></ellipse>
  <ellipse cx="109" cy="33" rx="8" ry="17" fill="#ECE8F2" transform="rotate(28 109 33)"></ellipse>
  <ellipse cx="11" cy="34" rx="4.5" ry="10" fill="#EAA8BB" transform="rotate(-28 11 34)"></ellipse>
  <ellipse cx="109" cy="34" rx="4.5" ry="10" fill="#EAA8BB" transform="rotate(28 109 34)"></ellipse>
  <ellipse cx="38" cy="19" rx="6" ry="13" fill="#CEAD6A" transform="rotate(-14 38 19)"></ellipse>
  <ellipse cx="82" cy="19" rx="6" ry="13" fill="#CEAD6A" transform="rotate(14 82 19)"></ellipse>
  <rect x="15" y="20" width="90" height="92" rx="30" fill="#F5F0ED"></rect>
  <ellipse cx="41" cy="44" rx="19" ry="13" fill="#7A7282" transform="rotate(-10 41 44)"></ellipse>
  <ellipse cx="79" cy="69" rx="14" ry="9" fill="#7A7282" transform="rotate(16 79 69)"></ellipse>
  <circle cx="44" cy="57" r="6" fill="#2A1E38"></circle>
  <circle cx="76" cy="57" r="6" fill="#2A1E38"></circle>
  <circle cx="46.5" cy="54.5" r="2.2" fill="white"></circle>
  <circle cx="78.5" cy="54.5" r="2.2" fill="white"></circle>
  <ellipse cx="60" cy="90" rx="27" ry="20" fill="#F0AABB"></ellipse>
  <circle cx="50" cy="91" r="9" fill="#2ECC71"></circle>
  <circle cx="70" cy="91" r="9" fill="#BDB5D4"></circle>
</svg>